<?xml version="1.0" encoding="utf-8" standalone="no"?>
<!DOCTYPE svg PUBLIC "-//W3C//DTD SVG 1.1//EN"
  "http://www.w3.org/Graphics/SVG/1.1/DTD/svg11.dtd">
<!-- Created with matplotlib (http://matplotlib.org/) -->
<svg height="198pt" version="1.1" viewBox="0 0 321 198" width="321pt" xmlns="http://www.w3.org/2000/svg" xmlns:xlink="http://www.w3.org/1999/xlink">
 <defs>
  <style type="text/css">
*{stroke-linecap:butt;stroke-linejoin:round;}
  </style>
 </defs>
 <g id="figure_1">
  <g id="patch_1">
   <path d="
M0 198.425
L321.059 198.425
L321.059 0
L0 0
z
" style="fill:#ffffff;"/>
  </g>
  <g id="axes_1">
   <g id="patch_2">
    <path d="
M48.8728 154.181
L308.099 154.181
L308.099 18.531
L48.8728 18.531
z
" style="fill:#ffffff;"/>
   </g>
   <g id="line2d_1">
    <path clip-path="url(#pd687899212)" d="
M117.194 92.5579
L121.414 84.2003
L127.041 72.494
L137.357 50.8767
L141.108 43.5671
L144.39 37.6735
L147.204 33.1071
L149.548 29.7086
L151.893 26.7286
L153.768 24.6736
L155.644 22.9313
L157.52 21.5175
L159.395 20.4454
L160.802 19.8717
L162.209 19.4989
L163.615 19.3291
L165.022 19.3631
L166.429 19.6007
L167.836 20.0407
L169.242 20.6808
L170.649 21.5175
L172.525 22.9313
L174.4 24.6736
L176.276 26.7286
L178.151 29.0777
L180.496 32.396
L182.84 36.0968
L185.654 40.9748
L188.936 47.1575
L193.156 55.6667
L200.19 70.5071
L206.754 84.2003
L210.506 91.6527
L210.506 91.6527" style="fill:none;stroke:#000000;stroke-dasharray:6.000000,6.000000;stroke-dashoffset:0.0;stroke-width:2.0;"/>
   </g>
   <g id="line2d_2">
    <path clip-path="url(#pd687899212)" d="
M61.0173 143.906
L98.6779 119.111
L114.597 87.3944
L130.995 62.2361
L145.137 46.7056
L157.462 37.2531
L168.551 32.3543
L178.115 32.2697
L191.206 54.0117
L210.278 91.3293
L281.639 144.573" style="fill:none;stroke:#0000ff;stroke-linecap:square;stroke-width:2.0;"/>
   </g>
   <g id="matplotlib.axis_1">
    <g id="xtick_1">
     <g id="line2d_3">
      <defs>
       <path d="
M0 0
L0 -4" id="mc7db9fdffb" style="stroke:#000000;stroke-width:0.5;"/>
      </defs>
      <g>
       <use style="stroke:#000000;stroke-width:0.5;" x="48.8728098731" xlink:href="#mc7db9fdffb" y="154.181025676"/>
      </g>
     </g>
     <g id="line2d_4">
      <defs>
       <path d="
M0 0
L0 4" id="m5a7d422ac3" style="stroke:#000000;stroke-width:0.5;"/>
      </defs>
      <g>
       <use style="stroke:#000000;stroke-width:0.5;" x="48.8728098731" xlink:href="#m5a7d422ac3" y="18.5310427936"/>
      </g>
     </g>
     <g id="text_1">
      <!-- $-2$ -->
      <defs>
       <path d="
M65.9062 23
C67.5938 23 69.4062 23 69.4062 25
C69.4062 27 67.5938 27 65.9062 27
L11.7969 27
C10.0938 27 8.29688 27 8.29688 25
C8.29688 23 10.0938 23 11.7969 23
z
" id="CMSY10-0"/>
       <path d="
M41.7031 15.4531
L39.9062 15.4531
C38.9062 8.375 38.0938 7.17188 37.7031 6.5625
C37.2031 5.76562 30 5.76562 28.5938 5.76562
L9.40625 5.76562
C13 9.67188 20 16.75 28.5 24.9531
C34.5938 30.7344 41.7031 37.5312 41.7031 47.4219
C41.7031 59.2188 32.2969 66 21.7969 66
C10.7969 66 4.09375 56.3125 4.09375 47.3438
C4.09375 43.4375 7 42.9375 8.20312 42.9375
C9.20312 42.9375 12.2031 43.5469 12.2031 47.0312
C12.2031 50.1094 9.59375 51 8.20312 51
C7.59375 51 7 50.9062 6.59375 50.7031
C8.5 59.2188 14.2969 63.4062 20.4062 63.4062
C29.0938 63.4062 34.7969 56.5156 34.7969 47.4219
C34.7969 38.7344 29.7031 31.25 24 24.75
L4.09375 2.28125
L4.09375 0
L39.2969 0
z
" id="CMR17-50"/>
      </defs>
      <g transform="translate(41.2970700328 167.051676142)scale(0.12 -0.12)">
       <use transform="scale(0.9962640099626402)" xlink:href="#CMSY10-0"/>
       <use transform="translate(77.4874676506071 0.0)scale(0.9962640099626402)" xlink:href="#CMR17-50"/>
      </g>
     </g>
    </g>
    <g id="xtick_2">
     <g id="line2d_5">
      <g>
       <use style="stroke:#000000;stroke-width:0.5;" x="106.478566063" xlink:href="#mc7db9fdffb" y="154.181025676"/>
      </g>
     </g>
     <g id="line2d_6">
      <g>
       <use style="stroke:#000000;stroke-width:0.5;" x="106.478566063" xlink:href="#m5a7d422ac3" y="18.5310427936"/>
      </g>
     </g>
     <g id="text_2">
      <!-- $-1$ -->
      <defs>
       <path d="
M26.5938 63.3125
C26.5938 65.4062 26.5 65.5 25.0938 65.5
C21.2031 61.1875 15.2969 59.7969 9.70312 59.7969
C9.40625 59.7969 8.90625 59.7969 8.79688 59.6094
C8.70312 59.3906 8.70312 59.1719 8.70312 57
C11.7969 57 17 57.5938 21 59.9844
L21 7.20312
C21 3.6875 20.7969 2.5 12.2031 2.5
L9.20312 2.5
L9.20312 0
C14 0 19 0 23.7969 0
C28.5938 0 33.5938 0 38.4062 0
L38.4062 2.5
L35.4062 2.5
C26.7969 2.5 26.5938 3.59375 26.5938 7.15625
z
" id="CMR17-49"/>
      </defs>
      <g transform="translate(98.9028262228 167.051676142)scale(0.12 -0.12)">
       <use transform="scale(0.9962640099626402)" xlink:href="#CMSY10-0"/>
       <use transform="translate(77.4874676506071 0.0)scale(0.9962640099626402)" xlink:href="#CMR17-49"/>
      </g>
     </g>
    </g>
    <g id="xtick_3">
     <g id="line2d_7">
      <g>
       <use style="stroke:#000000;stroke-width:0.5;" x="164.084322253" xlink:href="#mc7db9fdffb" y="154.181025676"/>
      </g>
     </g>
     <g id="line2d_8">
      <g>
       <use style="stroke:#000000;stroke-width:0.5;" x="164.084322253" xlink:href="#m5a7d422ac3" y="18.5310427936"/>
      </g>
     </g>
     <g id="text_3">
      <!-- $0$ -->
      <defs>
       <path d="
M42 31.6406
C42 37.75 41.9062 48.125 37.7031 56.1094
C34 63.1094 28.0938 65.5938 22.9062 65.5938
C18.0938 65.5938 12 63.4062 8.20312 56.2031
C4.20312 48.7188 3.79688 39.4375 3.79688 31.6406
C3.79688 25.9531 3.90625 17.2812 7 9.67188
C11.2969 -0.609375 19 -2 22.9062 -2
C27.5 -2 34.5 -0.109375 38.5938 9.375
C41.5938 16.2812 42 24.3594 42 31.6406
M22.9062 -0.40625
C16.5 -0.40625 12.7031 5.07812 11.2969 12.6875
C10.2031 18.5625 10.2031 27.1562 10.2031 32.75
C10.2031 40.4375 10.2031 46.8281 11.5 52.9219
C13.4062 61.3906 19 64 22.9062 64
C27 64 32.2969 61.2969 34.2031 53.125
C35.5 47.4375 35.5938 40.7344 35.5938 32.75
C35.5938 26.25 35.5938 18.2656 34.4062 12.375
C32.2969 1.48438 26.4062 -0.40625 22.9062 -0.40625" id="CMR17-48"/>
      </defs>
      <g transform="translate(161.157827128 167.051676142)scale(0.12 -0.12)">
       <use transform="scale(0.9962640099626402)" xlink:href="#CMR17-48"/>
      </g>
     </g>
    </g>
    <g id="xtick_4">
     <g id="line2d_9">
      <g>
       <use style="stroke:#000000;stroke-width:0.5;" x="221.690078443" xlink:href="#mc7db9fdffb" y="154.181025676"/>
      </g>
     </g>
     <g id="line2d_10">
      <g>
       <use style="stroke:#000000;stroke-width:0.5;" x="221.690078443" xlink:href="#m5a7d422ac3" y="18.5310427936"/>
      </g>
     </g>
     <g id="text_4">
      <!-- $1$ -->
      <g transform="translate(218.763583318 167.051676142)scale(0.12 -0.12)">
       <use transform="scale(0.9962640099626402)" xlink:href="#CMR17-49"/>
      </g>
     </g>
    </g>
    <g id="xtick_5">
     <g id="line2d_11">
      <g>
       <use style="stroke:#000000;stroke-width:0.5;" x="279.295834633" xlink:href="#mc7db9fdffb" y="154.181025676"/>
      </g>
     </g>
     <g id="line2d_12">
      <g>
       <use style="stroke:#000000;stroke-width:0.5;" x="279.295834633" xlink:href="#m5a7d422ac3" y="18.5310427936"/>
      </g>
     </g>
     <g id="text_5">
      <!-- $2$ -->
      <g transform="translate(276.369339508 167.051676142)scale(0.12 -0.12)">
       <use transform="scale(0.9962640099626402)" xlink:href="#CMR17-50"/>
      </g>
     </g>
    </g>
    <g id="text_6">
     <!-- $z$ -->
     <defs>
      <path d="
M12.7031 7.59375
C17 12.5469 20.5 15.6875 25.5 20.25
C31.5 25.5 34.0938 28.0156 35.5 29.5469
C42.5 36.5312 46 42.3906 46 43.1875
C46 44 45.2031 44 45 44
C44.2969 44 44.0938 43.6406 43.5938 42.9688
C41.0938 38.9688 38.7031 36.9844 36.0938 36.9844
C34 36.9844 32.9062 37.8281 31 40.0781
C28.9062 42.4219 27.2031 44 24.2969 44
C17 44 12.5938 35.2031 12.5938 33.1719
C12.5938 32.8906 12.7031 32.3125 13.5938 32.3125
C14.4062 32.3125 14.5 32.6719 14.7969 33.3281
C16.5 37.0625 21.2969 37.7188 23.2031 37.7188
C25.2969 37.7188 27.2969 37.125 29.4062 36.3594
C33.2031 35 34.7969 35 35.7969 35
C36.5 35 36.9062 35 37.4062 35.0938
C34.0938 31.1562 28.7031 26.2969 24.2031 22.1562
L14.0938 12.75
C8 6.48438 4.29688 0.515625 4.29688 -0.1875
C4.29688 -0.796875 4.79688 -1 5.40625 -1
C6 -1 6.09375 -0.890625 6.79688 0.21875
C8.40625 2.54688 11.5938 6 15.2969 6
C17.4062 6 18.4062 5.34375 20.4062 3.01562
C22.2969 0.953125 24 -1 27.2031 -1
C37 -1 42.5938 11.4688 42.5938 13.7344
C42.5938 14.1406 42.5 14.7188 41.5 14.7188
C40.7031 14.7188 40.5938 14.3281 40.2969 13.3594
C38.0938 7.625 32.2031 5.28125 28.2969 5.28125
C26.2031 5.28125 24.2031 5.875 22.0938 6.64062
C18.0938 8 17 8 15.7031 8
C14.7031 8 13.5938 8 12.7031 7.59375" id="CMMI12-122"/>
     </defs>
     <g transform="translate(175.76681611 183.193761729)scale(0.12 -0.12)">
      <use transform="scale(0.9962640099626402)" xlink:href="#CMMI12-122"/>
     </g>
    </g>
   </g>
   <g id="matplotlib.axis_2">
    <g id="ytick_1">
     <g id="line2d_13">
      <defs>
       <path d="
M0 0
L4 0" id="md7965d1ba0" style="stroke:#000000;stroke-width:0.5;"/>
      </defs>
      <g>
       <use style="stroke:#000000;stroke-width:0.5;" x="48.8728098731" xlink:href="#md7965d1ba0" y="154.181025676"/>
      </g>
     </g>
     <g id="line2d_14">
      <defs>
       <path d="
M0 0
L-4 0" id="md9a1c1a7cd" style="stroke:#000000;stroke-width:0.5;"/>
      </defs>
      <g>
       <use style="stroke:#000000;stroke-width:0.5;" x="308.098712728" xlink:href="#md9a1c1a7cd" y="154.181025676"/>
      </g>
     </g>
     <g id="text_7">
      <!-- $0.0$ -->
      <defs>
       <path d="
M18.4062 4.79688
C18.4062 7.6875 16 9.67188 13.5938 9.67188
C10.7031 9.67188 8.70312 7.28125 8.70312 4.89062
C8.70312 2 11.0938 0 13.5 0
C16.4062 0 18.4062 2.39062 18.4062 4.79688" id="CMMI12-58"/>
      </defs>
      <g transform="translate(29.9151681196 157.480633348)scale(0.12 -0.12)">
       <use transform="scale(0.9962640099626402)" xlink:href="#CMR17-48"/>
       <use transform="translate(45.69047711706103 0.0)scale(0.9962640099626402)" xlink:href="#CMMI12-58"/>
       <use transform="translate(72.78765420688046 0.0)scale(0.9962640099626402)" xlink:href="#CMR17-48"/>
      </g>
     </g>
    </g>
    <g id="ytick_2">
     <g id="line2d_15">
      <g>
       <use style="stroke:#000000;stroke-width:0.5;" x="48.8728098731" xlink:href="#md7965d1ba0" y="108.964364715"/>
      </g>
     </g>
     <g id="line2d_16">
      <g>
       <use style="stroke:#000000;stroke-width:0.5;" x="308.098712728" xlink:href="#md9a1c1a7cd" y="108.964364715"/>
      </g>
     </g>
     <g id="text_8">
      <!-- $0.2$ -->
      <g transform="translate(29.9151681196 112.263972388)scale(0.12 -0.12)">
       <use transform="scale(0.9962640099626402)" xlink:href="#CMR17-48"/>
       <use transform="translate(45.69047711706103 0.0)scale(0.9962640099626402)" xlink:href="#CMMI12-58"/>
       <use transform="translate(72.78765420688046 0.0)scale(0.9962640099626402)" xlink:href="#CMR17-50"/>
      </g>
     </g>
    </g>
    <g id="ytick_3">
     <g id="line2d_17">
      <g>
       <use style="stroke:#000000;stroke-width:0.5;" x="48.8728098731" xlink:href="#md7965d1ba0" y="63.7477037544"/>
      </g>
     </g>
     <g id="line2d_18">
      <g>
       <use style="stroke:#000000;stroke-width:0.5;" x="308.098712728" xlink:href="#md9a1c1a7cd" y="63.7477037544"/>
      </g>
     </g>
     <g id="text_9">
      <!-- $0.4$ -->
      <defs>
       <path d="
M33.5938 64.3281
C33.5938 66.4062 33.5 66.5 31.7031 66.5
L2 19.5938
L2 17
L27.7969 17
L27.7969 7.14062
C27.7969 3.5 27.5938 2.5 20.5938 2.5
L18.7031 2.5
L18.7031 0
C21.9062 0 27.2969 0 30.7031 0
C34.0938 0 39.5 0 42.7031 0
L42.7031 2.5
L40.7969 2.5
C33.7969 2.5 33.5938 3.5 33.5938 7.14062
L33.5938 17
L43.7969 17
L43.7969 19.5938
L33.5938 19.5938
z

M28.0938 57.7656
L28.0938 19.5938
L4 19.5938
z
" id="CMR17-52"/>
      </defs>
      <g transform="translate(29.9151681196 67.0473114268)scale(0.12 -0.12)">
       <use transform="scale(0.9962640099626402)" xlink:href="#CMR17-48"/>
       <use transform="translate(45.69047711706103 0.0)scale(0.9962640099626402)" xlink:href="#CMMI12-58"/>
       <use transform="translate(72.78765420688046 0.0)scale(0.9962640099626402)" xlink:href="#CMR17-52"/>
      </g>
     </g>
    </g>
    <g id="ytick_4">
     <g id="line2d_19">
      <g>
       <use style="stroke:#000000;stroke-width:0.5;" x="48.8728098731" xlink:href="#md7965d1ba0" y="18.5310427936"/>
      </g>
     </g>
     <g id="line2d_20">
      <g>
       <use style="stroke:#000000;stroke-width:0.5;" x="308.098712728" xlink:href="#md9a1c1a7cd" y="18.5310427936"/>
      </g>
     </g>
     <g id="text_10">
      <!-- $0.6$ -->
      <defs>
       <path d="
M10.5938 34
C10.5938 57.6562 21.7969 63 28.2969 63
C30.4062 63 35.5 62.6406 37.5 59
C35.9062 59 32.9062 59 32.9062 55.5156
C32.9062 52.8281 35.0938 51.9219 36.5 51.9219
C37.4062 51.9219 40.0938 52.3125 40.0938 55.625
C40.0938 61.7812 35.0938 65.2969 28.2031 65.2969
C16.2969 65.2969 3.79688 52.9688 3.79688 31
C3.79688 3.95312 15.0938 -2 23.0938 -2
C32.7969 -2 42 6.67188 42 20.0469
C42 32.5156 33.9062 41.5938 23.7031 41.5938
C17.5938 41.5938 13.0938 37.6094 10.5938 30.625
z

M23.0938 0.390625
C10.7969 0.390625 10.7969 18.75 10.7969 22.4375
C10.7969 29.625 14.2031 40 23.5 40
C25.2031 40 30.0938 40 33.4062 33.125
C35.2031 29.2188 35.2031 25.1406 35.2031 20.1406
C35.2031 14.75 35.2031 10.7812 33.0938 6.78125
C30.9062 2.67188 27.7031 0.390625 23.0938 0.390625" id="CMR17-54"/>
      </defs>
      <g transform="translate(29.9151681196 21.830650466)scale(0.12 -0.12)">
       <use transform="scale(0.9962640099626402)" xlink:href="#CMR17-48"/>
       <use transform="translate(45.69047711706103 0.0)scale(0.9962640099626402)" xlink:href="#CMMI12-58"/>
       <use transform="translate(72.78765420688046 0.0)scale(0.9962640099626402)" xlink:href="#CMR17-54"/>
      </g>
     </g>
    </g>
    <g id="text_11">
     <!-- $\Phi(z)$ -->
     <defs>
      <path d="
M36.4062 12.7812
C52.5938 14.1719 62.0938 24.2656 62.0938 33.9375
C62.0938 44.0312 52.2031 53.8125 36.4062 55.2188
L36.4062 60.8906
C36.4062 64.5 36.5938 65.5 44.2031 65.5
L46.4062 65.5
L46.4062 68
C42.2969 68 37.5 68 33.2969 68
C29.0938 68 24.2031 68 20.0938 68
L20.0938 65.5
L22.2969 65.5
C29.9062 65.5 30.0938 64.5 30.0938 60.8906
L30.0938 55.2188
C14.4062 53.8125 4.59375 43.9219 4.59375 34.0469
C4.59375 23.7656 14.7969 14.1719 30.0938 12.7812
L30.0938 7.09375
C30.0938 3.5 29.9062 2.5 22.2969 2.5
L20.0938 2.5
L20.0938 0
C24.2031 0 29.0938 0 33.2969 0
C37.5 0 42.2969 0 46.4062 0
L46.4062 2.5
L44.2031 2.5
C36.5938 2.5 36.4062 3.5 36.4062 7.09375
z

M30.0938 14.4844
C21.0938 15.4844 12 20.6719 12 33.9531
C12 47.625 21.4062 52.6094 30.0938 53.5156
z

M36.4062 53.5156
C44.2969 52.8125 54.7031 48.3281 54.7031 34.0469
C54.7031 19.375 43.9062 15.1875 36.4062 14.4844
z
" id="CMR17-8"/>
      <path d="
M26.2969 24.6719
C26.2969 31.8438 25.5938 43.9844 19.5938 56.8281
C14.7969 67.1875 6.59375 74.4531 5.40625 74.4531
C5.09375 74.4531 4.70312 74.3438 4.70312 73.8594
C4.70312 73.6719 4.79688 73.5625 4.90625 73.3594
C9.70312 68.3906 21.9062 55.75 21.9062 24.7969
C21.9062 -6.28125 9.79688 -18.9219 4.90625 -23.9062
C4.79688 -24.0938 4.70312 -24.2031 4.70312 -24.3906
C4.70312 -24.8906 5.09375 -25 5.40625 -25
C6.5 -25 15 -17.625 19.9062 -6.67188
C24.9062 4.375 26.2969 15.125 26.2969 24.6719" id="CMR17-41"/>
      <path d="
M30.5938 -24.4062
C30.5938 -24.3125 30.5938 -24.1094 30.2969 -23.8125
C25.7031 -19.1406 13.4062 -6.39062 13.4062 24.6719
C13.4062 55.75 25.5 68.3906 30.4062 73.3594
C30.4062 73.4688 30.5938 73.6719 30.5938 73.9531
C30.5938 74.25 30.2969 74.4531 29.9062 74.4531
C28.7969 74.4531 20.2969 67.0781 15.4062 56.125
C10.4062 45.0781 9 34.3281 9 24.7812
C9 17.6094 9.70312 5.46875 15.7031 -7.375
C20.5 -17.7344 28.7031 -25 29.9062 -25
C30.4062 -25 30.5938 -24.7969 30.5938 -24.4062" id="CMR17-40"/>
     </defs>
     <g transform="translate(21.9263760897 98.1208228327)rotate(-90.0)scale(0.12 -0.12)">
      <use transform="scale(0.9962640099626402)" xlink:href="#CMR17-8"/>
      <use transform="translate(66.50988055047479 0.0)scale(0.9962640099626402)" xlink:href="#CMR17-40"/>
      <use transform="translate(101.79064834993774 0.0)scale(0.9962640099626402)" xlink:href="#CMMI12-122"/>
      <use transform="translate(151.54579324116597 0.0)scale(0.9962640099626402)" xlink:href="#CMR17-41"/>
     </g>
    </g>
   </g>
   <g id="patch_3">
    <path d="
M48.8728 154.181
L308.099 154.181" style="fill:none;stroke:#000000;"/>
   </g>
   <g id="patch_4">
    <path d="
M48.8728 154.181
L48.8728 18.531" style="fill:none;stroke:#000000;"/>
   </g>
   <g id="patch_5">
    <path d="
M308.099 154.181
L308.099 18.531" style="fill:none;stroke:#000000;"/>
   </g>
   <g id="patch_6">
    <path d="
M48.8728 18.531
L308.099 18.531" style="fill:none;stroke:#000000;"/>
   </g>
  </g>
 </g>
 <defs>
  <clipPath id="pd687899212">
   <rect height="135.649982882" width="259.225902855" x="48.8728098731" y="18.5310427936"/>
  </clipPath>
 </defs>
</svg>
