<?xml version="1.0" encoding="utf-8" standalone="no"?>
<!DOCTYPE svg PUBLIC "-//W3C//DTD SVG 1.1//EN"
  "http://www.w3.org/Graphics/SVG/1.1/DTD/svg11.dtd">
<!-- Created with matplotlib (http://matplotlib.org/) -->
<svg height="198pt" version="1.1" viewBox="0 0 321 198" width="321pt" xmlns="http://www.w3.org/2000/svg" xmlns:xlink="http://www.w3.org/1999/xlink">
 <defs>
  <style type="text/css">
*{stroke-linecap:butt;stroke-linejoin:round;}
  </style>
 </defs>
 <g id="figure_1">
  <g id="patch_1">
   <path d="
M0 198.425
L321.059 198.425
L321.059 0
L0 0
z
" style="fill:#ffffff;"/>
  </g>
  <g id="axes_1">
   <g id="patch_2">
    <path d="
M39.7682 154.181
L308.099 154.181
L308.099 18.531
L39.7682 18.531
z
" style="fill:#ffffff;"/>
   </g>
   <g id="line2d_1">
    <path clip-path="url(#p43ea8d3ba0)" d="
M39.7682 154.181
L165.156 154.181
L165.2 32.4144
L166.119 32.4144
L167.039 32.4144
L167.958 32.4144
L168.877 32.4144
L169.797 32.4144
L170.716 32.4144
L171.635 32.4144
L172.554 32.4144
L173.474 32.4144
L174.393 32.4144
L175.312 32.4144
L176.232 32.4144
L177.151 32.4144
L178.07 32.4144
L178.99 32.4144
L179.909 32.4144
L180.828 32.4144
L181.747 32.4144
L182.667 32.4144
L182.71 154.181
L308.099 154.181" style="fill:none;stroke:#000000;stroke-dasharray:6.000000,6.000000;stroke-dashoffset:0.0;stroke-width:2.0;"/>
   </g>
   <g id="line2d_2">
    <path clip-path="url(#p43ea8d3ba0)" d="
M161.034 119.527
L170.4 59.0124
L175.702 50.8565
L187.144 119.687" style="fill:none;stroke:#0000ff;stroke-linecap:square;stroke-width:2.0;"/>
   </g>
   <g id="matplotlib.axis_1">
    <g id="xtick_1">
     <g id="line2d_3">
      <path clip-path="url(#p43ea8d3ba0)" d="
M165.2 154.181
L165.2 18.531" style="fill:none;stroke:#000000;stroke-dasharray:1.000000,3.000000;stroke-dashoffset:0.0;stroke-width:0.5;"/>
     </g>
     <g id="line2d_4">
      <defs>
       <path d="
M0 0
L0 -4" id="mc7db9fdffb" style="stroke:#000000;stroke-width:0.5;"/>
      </defs>
      <g>
       <use style="stroke:#000000;stroke-width:0.5;" x="165.200107388" xlink:href="#mc7db9fdffb" y="154.181025676"/>
      </g>
     </g>
     <g id="line2d_5">
      <defs>
       <path d="
M0 0
L0 4" id="m5a7d422ac3" style="stroke:#000000;stroke-width:0.5;"/>
      </defs>
      <g>
       <use style="stroke:#000000;stroke-width:0.5;" x="165.200107388" xlink:href="#m5a7d422ac3" y="18.5310427936"/>
      </g>
     </g>
     <g id="text_1">
      <!-- 9/253 -->
      <defs>
       <path d="
M16.4062 59.7031
C21.7969 58.4062 24.5938 58 28.5 58
C37 58 43.2031 61 46.5 66.5
C47.5938 68.4062 48 69.2969 48 70.0938
C48 70.7031 47.7031 71 47.2031 71
C46.9062 71 46.4062 70.8906 45.9062 70.5938
C41 68.4844 38.2969 67.9844 32.5938 67.9844
C26.2031 67.9844 22.5 68.4844 12 71
C11.5938 62.6406 10.7031 52 9.29688 39.6562
C7.20312 37.4688 6.5 36.1719 6.5 34.5781
C6.5 32.5938 7.79688 31.2031 9.70312 31.2031
C12.2031 31.2031 13.7969 33.3281 14.2031 37.3594
C17.7031 39.8906 21 41 25 41
C33.9062 41 39.2969 34.0312 39.2969 22.5
C39.2969 15.7344 37.5938 9.95312 34.5938 6.82812
C32.5938 4.70312 28.5 3.29688 24.4062 3.29688
C18.4062 3.29688 12.2031 6.4375 12.2031 9.5625
C12.2031 10.2812 12.7969 11.0781 14 11.7812
C17.0938 13.7188 18 15.0312 18 17.75
C18 21.2969 15.2969 24.0156 11.7031 24.0156
C7.70312 24.0156 4.5 20.2812 4.5 15.5469
C4.5 10.5 7.40625 5.45312 11.9062 2.32812
C15.2969 0.109375 19.4062 -1 24.5938 -1
C40.2969 -1 50.2031 8.28125 50.2031 23.1094
C50.2031 36.8281 41.0938 46 27.5938 46
C23.4062 46 20.2031 45.2969 14.7031 43
z
" id="Century_Schoolbook_L_Roman-53"/>
       <path d="
M50.5 21.5625
L46.0938 21.5625
L45.0938 16.4688
C43.7969 10.0781 43 9.375 36.7969 9.375
L14.4062 9.375
C21.2969 16.5625 23.5938 18.6562 30 23.6562
C39.0938 30.6562 43 34.1562 45.2969 37.1406
C48.5 41.5312 50.0938 46.0312 50.0938 50.8125
C50.0938 62.1094 40.5938 70.2969 27.5938 70.2969
C14.9062 70.2969 5.09375 62.1094 5.09375 51.5156
C5.09375 45.2344 8.29688 40.9375 13.0938 40.9375
C16.7969 40.9375 19.2969 43.4375 19.2969 47.0312
C19.2969 49.5156 17.9062 51.8125 15.7031 52.7188
C12 54.3281 11.7969 54.4219 11.7969 55.7188
C11.7969 57.2188 12.7969 59.5156 14.2031 61.2188
C16.7031 64.2031 20.9062 66 25.5938 66
C33.7969 66 38.7969 60.9062 38.7969 52.5312
C38.7969 45.125 35.2969 38.4375 27 29.6562
L21.0938 23.4688
C17.5938 19.7812 15 16.9688 13.2969 15.0781
C9.70312 10.875 7.90625 8.57812 3.5 2.79688
L3.5 0
L48.5938 0
z
" id="Century_Schoolbook_L_Roman-50"/>
       <path d="
M34.5938 36.8125
C36 37.3125 36.2031 37.3125 36.9062 37.6094
C43.9062 40.5625 47.9062 46.2656 47.9062 53.4844
C47.9062 64.0625 39.9062 71 27.5 71
C15.7969 71 6.90625 63.9688 6.90625 54.7188
C6.90625 50.5469 9.70312 47.5938 13.5 47.5938
C17 47.5938 19.4062 50.0469 19.4062 53.7188
C19.4062 55.875 18.5938 57.2969 16.2969 58.9375
C15.2969 59.6406 15 60.1562 15 60.7812
C15 63.6406 20.9062 66.7031 26.5 66.7031
C33.7031 66.7031 37.5 62.125 37.5 53.4688
C37.5 43.9844 33.7031 39 26.5 39
C25.5938 39 24 39 22.5 39
C21.7031 39 20.9062 39 20.2969 39
C18.2031 39 17.0938 38.125 17.0938 36.4062
C17.0938 34.7812 18.2031 34.0156 20.2031 34.0156
C20.5 34.0156 21.2969 34.0156 22.5938 34.0156
C26.4062 34.0156 26.5 34.0156 27.2969 34.0156
C34.7031 34.0156 38.7031 28.8281 38.7031 19.1406
C38.7031 9.0625 33.5938 3.29688 24.7031 3.29688
C18.4062 3.29688 11.5938 6.64062 11.5938 9.6875
C11.5938 10.5938 11.7969 10.7656 13.7969 11.875
C16.5938 13.5312 17.7031 15.2188 17.7031 17.6562
C17.7031 21.2031 15 23.875 11.2969 23.875
C7.09375 23.875 4.20312 20.3281 4.20312 15.1875
C4.20312 5.60938 13.0938 -1 25.9062 -1
C40.2969 -1 49.7969 6.89062 49.7969 19.0469
C49.7969 28.3125 44.9062 33.9375 34.5938 36.8125" id="Century_Schoolbook_L_Roman-51"/>
       <path d="
M40.4062 35.125
C39.0938 23.0625 38.5938 20.0625 36.7969 14.9688
C34.2031 7.59375 28.7031 3.29688 22 3.29688
C18.7031 3.29688 16.4062 4.29688 16.4062 5.79688
C16.4062 6.1875 16.5938 6.6875 17 7.48438
C18.2031 9.875 18.4062 10.4844 18.4062 11.8594
C18.4062 15.1562 15.7969 17.75 12.5 17.75
C8.70312 17.75 5.70312 14.5625 5.70312 10.5625
C5.70312 4 12.7031 -1 21.9062 -1
C31 -1 38.7969 3.10938 43.7031 10.5156
C48.5938 17.9219 51.2969 27.6406 51.2969 37.9531
C51.2969 58.0781 41.7031 71 26.7969 71
C14 71 3.90625 60.3594 3.90625 46.7969
C3.90625 34.8438 12.2969 26.0156 23.7031 26.0156
C30.7969 26.0156 35 28.3281 40.4062 35.125
M27.2031 66.7031
C34.5938 66.7031 39.5 59.25 39.5 48
C39.5 43.875 38.7031 40.1562 37.2031 37.8438
C34.9062 34.2188 31 32 26.7031 32
C19.0938 32 14.7969 37.9375 14.7969 48.5938
C14.7969 53.4219 15.9062 58.1562 17.7969 61.1719
C20.0938 65.0938 22.7969 66.7031 27.2031 66.7031" id="Century_Schoolbook_L_Roman-57"/>
       <path d="
M24.4062 74
L-2.29688 -1
L3.5 -1
L30.2031 74
z
" id="Century_Schoolbook_L_Roman-47"/>
      </defs>
      <g transform="translate(150.244411462 167.051676142)scale(0.12 -0.12)">
       <use transform="scale(0.9962640099626402)" xlink:href="#Century_Schoolbook_L_Roman-57"/>
       <use transform="translate(55.3916769633406 0.0)scale(0.9962640099626402)" xlink:href="#Century_Schoolbook_L_Roman-47"/>
       <use transform="translate(83.08684656658625 0.0)scale(0.9962640099626402)" xlink:href="#Century_Schoolbook_L_Roman-50"/>
       <use transform="translate(138.47852352992686 0.0)scale(0.9962640099626402)" xlink:href="#Century_Schoolbook_L_Roman-53"/>
       <use transform="translate(193.87020049326745 0.0)scale(0.9962640099626402)" xlink:href="#Century_Schoolbook_L_Roman-51"/>
      </g>
     </g>
    </g>
    <g id="xtick_2">
     <g id="line2d_6">
      <path clip-path="url(#p43ea8d3ba0)" d="
M182.667 154.181
L182.667 18.531" style="fill:none;stroke:#000000;stroke-dasharray:1.000000,3.000000;stroke-dashoffset:0.0;stroke-width:0.5;"/>
     </g>
     <g id="line2d_7">
      <g>
       <use style="stroke:#000000;stroke-width:0.5;" x="182.666763712" xlink:href="#mc7db9fdffb" y="154.181025676"/>
      </g>
     </g>
     <g id="line2d_8">
      <g>
       <use style="stroke:#000000;stroke-width:0.5;" x="182.666763712" xlink:href="#m5a7d422ac3" y="18.5310427936"/>
      </g>
     </g>
     <g id="text_2">
      <!-- 25/143 -->
      <defs>
       <path d="
M36.7969 70.5
L2.79688 23
L2.79688 17.4062
L30.9062 17.4062
L30.9062 12.25
L30.9062 9.35938
C30.9062 5.1875 30 4.6875 21.9062 4.6875
L20.7969 4.6875
L20.7969 0
L50 0
L50 4.6875
L49.5938 4.6875
C41.5 4.6875 40.5938 5.1875 40.5938 9.35938
L40.5938 12.25
L40.5938 17.4062
L52.7031 17.4062
L52.7031 23
L40.5938 23
L40.5938 50.4062
C40.5938 62.9688 40.5938 62.9688 41.0938 70.5
z

M30.9062 23
L8.90625 23
L30.9062 53.4219
z
" id="Century_Schoolbook_L_Roman-52"/>
       <path d="
M32.2031 70.5
C28.7969 66.2344 19.5938 63 10.4062 63
L10.4062 58.5938
L19.2031 58.5938
C25 58.5938 25.4062 58.2031 25.4062 52.3125
L25.4062 12.2812
L25.4062 9.375
C25.4062 5.1875 24.5 4.6875 16.5 4.6875
L10 4.6875
L10 0
L49.5938 0
L49.5938 4.6875
L44.0938 4.6875
C38.7969 4.6875 36.5938 5.09375 35.7969 6.09375
C35.0938 6.78125 35.0938 6.78125 35.0938 12.3125
L35.0938 53.6719
C35.0938 58.5781 35.2969 63.375 35.7969 70.5
z
" id="Century_Schoolbook_L_Roman-49"/>
      </defs>
      <g transform="translate(164.387570513 167.051676142)scale(0.12 -0.12)">
       <use transform="scale(0.9962640099626402)" xlink:href="#Century_Schoolbook_L_Roman-50"/>
       <use transform="translate(55.3916769633406 0.0)scale(0.9962640099626402)" xlink:href="#Century_Schoolbook_L_Roman-53"/>
       <use transform="translate(110.7833539266812 0.0)scale(0.9962640099626402)" xlink:href="#Century_Schoolbook_L_Roman-47"/>
       <use transform="translate(138.47852352992686 0.0)scale(0.9962640099626402)" xlink:href="#Century_Schoolbook_L_Roman-49"/>
       <use transform="translate(193.87020049326745 0.0)scale(0.9962640099626402)" xlink:href="#Century_Schoolbook_L_Roman-52"/>
       <use transform="translate(249.26187745660806 0.0)scale(0.9962640099626402)" xlink:href="#Century_Schoolbook_L_Roman-51"/>
      </g>
     </g>
    </g>
    <g id="text_3">
     <!-- $s$ -->
     <defs>
      <path d="
M22.7969 20
C24.5 19.7031 27.2031 19.1094 27.7969 19
C29.0938 18.625 33.5938 17.0312 33.5938 12.2344
C33.5938 9.15625 30.7969 1.09375 19.2031 1.09375
C17.0938 1.09375 9.59375 1.09375 7.59375 6.8125
C11.5938 6.3125 13.5938 9.42188 13.5938 11.6406
C13.5938 13.75 12.2031 14.8438 10.2031 14.8438
C8 14.8438 5.09375 13.1406 5.09375 8.625
C5.09375 2.70312 11.0938 -1 19.0938 -1
C34.2969 -1 38.7969 10.1719 38.7969 15.375
C38.7969 16.8594 38.7969 19.6562 35.5938 22.8438
C33.0938 25.25 30.7031 25.75 25.2969 26.8438
C22.5938 27.4375 18.2969 28.3438 18.2969 32.8281
C18.2969 34.8281 20.0938 42.0156 29.5938 42.0156
C33.7969 42.0156 37.9062 40.4531 38.9062 37
C34.5 37 34.2969 33.2031 34.2969 33.1094
C34.2969 31 36.2031 30.4062 37.0938 30.4062
C38.5 30.4062 41.2969 31.4844 41.2969 35.6406
C41.2969 39.7656 37.5 44 29.7031 44
C16.5938 44 13.0938 33.75 13.0938 29.6719
C13.0938 22.0938 20.5 20.5 22.7969 20" id="CMMI12-115"/>
     </defs>
     <g transform="translate(171.176432697 183.193761729)scale(0.12 -0.12)">
      <use transform="scale(0.9962640099626402)" xlink:href="#CMMI12-115"/>
     </g>
    </g>
   </g>
   <g id="matplotlib.axis_2">
    <g id="ytick_1">
     <g id="line2d_9">
      <path clip-path="url(#p43ea8d3ba0)" d="
M39.7682 154.181
L308.099 154.181" style="fill:none;stroke:#000000;stroke-dasharray:1.000000,3.000000;stroke-dashoffset:0.0;stroke-width:0.5;"/>
     </g>
     <g id="line2d_10">
      <defs>
       <path d="
M0 0
L4 0" id="md7965d1ba0" style="stroke:#000000;stroke-width:0.5;"/>
      </defs>
      <g>
       <use style="stroke:#000000;stroke-width:0.5;" x="39.768158371" xlink:href="#md7965d1ba0" y="154.181025676"/>
      </g>
     </g>
     <g id="line2d_11">
      <defs>
       <path d="
M0 0
L-4 0" id="md9a1c1a7cd" style="stroke:#000000;stroke-width:0.5;"/>
      </defs>
      <g>
       <use style="stroke:#000000;stroke-width:0.5;" x="308.098712728" xlink:href="#md9a1c1a7cd" y="154.181025676"/>
      </g>
     </g>
     <g id="text_4">
      <!-- $0$ -->
      <defs>
       <path d="
M42 31.6406
C42 37.75 41.9062 48.125 37.7031 56.1094
C34 63.1094 28.0938 65.5938 22.9062 65.5938
C18.0938 65.5938 12 63.4062 8.20312 56.2031
C4.20312 48.7188 3.79688 39.4375 3.79688 31.6406
C3.79688 25.9531 3.90625 17.2812 7 9.67188
C11.2969 -0.609375 19 -2 22.9062 -2
C27.5 -2 34.5 -0.109375 38.5938 9.375
C41.5938 16.2812 42 24.3594 42 31.6406
M22.9062 -0.40625
C16.5 -0.40625 12.7031 5.07812 11.2969 12.6875
C10.2031 18.5625 10.2031 27.1562 10.2031 32.75
C10.2031 40.4375 10.2031 46.8281 11.5 52.9219
C13.4062 61.3906 19 64 22.9062 64
C27 64 32.2969 61.2969 34.2031 53.125
C35.5 47.4375 35.5938 40.7344 35.5938 32.75
C35.5938 26.25 35.5938 18.2656 34.4062 12.375
C32.2969 1.48438 26.4062 -0.40625 22.9062 -0.40625" id="CMR17-48"/>
      </defs>
      <g transform="translate(29.9151681196 157.480633348)scale(0.12 -0.12)">
       <use transform="scale(0.9962640099626402)" xlink:href="#CMR17-48"/>
      </g>
     </g>
    </g>
    <g id="ytick_2">
     <g id="line2d_12">
      <path clip-path="url(#p43ea8d3ba0)" d="
M39.7682 120.269
L308.099 120.269" style="fill:none;stroke:#000000;stroke-dasharray:1.000000,3.000000;stroke-dashoffset:0.0;stroke-width:0.5;"/>
     </g>
     <g id="line2d_13">
      <g>
       <use style="stroke:#000000;stroke-width:0.5;" x="39.768158371" xlink:href="#md7965d1ba0" y="120.268529955"/>
      </g>
     </g>
     <g id="line2d_14">
      <g>
       <use style="stroke:#000000;stroke-width:0.5;" x="308.098712728" xlink:href="#md9a1c1a7cd" y="120.268529955"/>
      </g>
     </g>
     <g id="text_5">
      <!-- $2$ -->
      <defs>
       <path d="
M41.7031 15.4531
L39.9062 15.4531
C38.9062 8.375 38.0938 7.17188 37.7031 6.5625
C37.2031 5.76562 30 5.76562 28.5938 5.76562
L9.40625 5.76562
C13 9.67188 20 16.75 28.5 24.9531
C34.5938 30.7344 41.7031 37.5312 41.7031 47.4219
C41.7031 59.2188 32.2969 66 21.7969 66
C10.7969 66 4.09375 56.3125 4.09375 47.3438
C4.09375 43.4375 7 42.9375 8.20312 42.9375
C9.20312 42.9375 12.2031 43.5469 12.2031 47.0312
C12.2031 50.1094 9.59375 51 8.20312 51
C7.59375 51 7 50.9062 6.59375 50.7031
C8.5 59.2188 14.2969 63.4062 20.4062 63.4062
C29.0938 63.4062 34.7969 56.5156 34.7969 47.4219
C34.7969 38.7344 29.7031 31.25 24 24.75
L4.09375 2.28125
L4.09375 0
L39.2969 0
z
" id="CMR17-50"/>
      </defs>
      <g transform="translate(29.9151681196 123.568137628)scale(0.12 -0.12)">
       <use transform="scale(0.9962640099626402)" xlink:href="#CMR17-50"/>
      </g>
     </g>
    </g>
    <g id="ytick_3">
     <g id="line2d_15">
      <path clip-path="url(#p43ea8d3ba0)" d="
M39.7682 86.356
L308.099 86.356" style="fill:none;stroke:#000000;stroke-dasharray:1.000000,3.000000;stroke-dashoffset:0.0;stroke-width:0.5;"/>
     </g>
     <g id="line2d_16">
      <g>
       <use style="stroke:#000000;stroke-width:0.5;" x="39.768158371" xlink:href="#md7965d1ba0" y="86.3560342348"/>
      </g>
     </g>
     <g id="line2d_17">
      <g>
       <use style="stroke:#000000;stroke-width:0.5;" x="308.098712728" xlink:href="#md9a1c1a7cd" y="86.3560342348"/>
      </g>
     </g>
     <g id="text_6">
      <!-- $4$ -->
      <defs>
       <path d="
M33.5938 64.3281
C33.5938 66.4062 33.5 66.5 31.7031 66.5
L2 19.5938
L2 17
L27.7969 17
L27.7969 7.14062
C27.7969 3.5 27.5938 2.5 20.5938 2.5
L18.7031 2.5
L18.7031 0
C21.9062 0 27.2969 0 30.7031 0
C34.0938 0 39.5 0 42.7031 0
L42.7031 2.5
L40.7969 2.5
C33.7969 2.5 33.5938 3.5 33.5938 7.14062
L33.5938 17
L43.7969 17
L43.7969 19.5938
L33.5938 19.5938
z

M28.0938 57.7656
L28.0938 19.5938
L4 19.5938
z
" id="CMR17-52"/>
      </defs>
      <g transform="translate(29.9151681196 89.6556419072)scale(0.12 -0.12)">
       <use transform="scale(0.9962640099626402)" xlink:href="#CMR17-52"/>
      </g>
     </g>
    </g>
    <g id="ytick_4">
     <g id="line2d_18">
      <path clip-path="url(#p43ea8d3ba0)" d="
M39.7682 52.4435
L308.099 52.4435" style="fill:none;stroke:#000000;stroke-dasharray:1.000000,3.000000;stroke-dashoffset:0.0;stroke-width:0.5;"/>
     </g>
     <g id="line2d_19">
      <g>
       <use style="stroke:#000000;stroke-width:0.5;" x="39.768158371" xlink:href="#md7965d1ba0" y="52.4435385142"/>
      </g>
     </g>
     <g id="line2d_20">
      <g>
       <use style="stroke:#000000;stroke-width:0.5;" x="308.098712728" xlink:href="#md9a1c1a7cd" y="52.4435385142"/>
      </g>
     </g>
     <g id="text_7">
      <!-- $6$ -->
      <defs>
       <path d="
M10.5938 34
C10.5938 57.6562 21.7969 63 28.2969 63
C30.4062 63 35.5 62.6406 37.5 59
C35.9062 59 32.9062 59 32.9062 55.5156
C32.9062 52.8281 35.0938 51.9219 36.5 51.9219
C37.4062 51.9219 40.0938 52.3125 40.0938 55.625
C40.0938 61.7812 35.0938 65.2969 28.2031 65.2969
C16.2969 65.2969 3.79688 52.9688 3.79688 31
C3.79688 3.95312 15.0938 -2 23.0938 -2
C32.7969 -2 42 6.67188 42 20.0469
C42 32.5156 33.9062 41.5938 23.7031 41.5938
C17.5938 41.5938 13.0938 37.6094 10.5938 30.625
z

M23.0938 0.390625
C10.7969 0.390625 10.7969 18.75 10.7969 22.4375
C10.7969 29.625 14.2031 40 23.5 40
C25.2031 40 30.0938 40 33.4062 33.125
C35.2031 29.2188 35.2031 25.1406 35.2031 20.1406
C35.2031 14.75 35.2031 10.7812 33.0938 6.78125
C30.9062 2.67188 27.7031 0.390625 23.0938 0.390625" id="CMR17-54"/>
      </defs>
      <g transform="translate(29.9151681196 55.7431461866)scale(0.12 -0.12)">
       <use transform="scale(0.9962640099626402)" xlink:href="#CMR17-54"/>
      </g>
     </g>
    </g>
    <g id="ytick_5">
     <g id="line2d_21">
      <path clip-path="url(#p43ea8d3ba0)" d="
M39.7682 18.531
L308.099 18.531" style="fill:none;stroke:#000000;stroke-dasharray:1.000000,3.000000;stroke-dashoffset:0.0;stroke-width:0.5;"/>
     </g>
     <g id="line2d_22">
      <g>
       <use style="stroke:#000000;stroke-width:0.5;" x="39.768158371" xlink:href="#md7965d1ba0" y="18.5310427936"/>
      </g>
     </g>
     <g id="line2d_23">
      <g>
       <use style="stroke:#000000;stroke-width:0.5;" x="308.098712728" xlink:href="#md9a1c1a7cd" y="18.5310427936"/>
      </g>
     </g>
     <g id="text_8">
      <!-- $8$ -->
      <defs>
       <path d="
M27.2031 35.375
C33.5 38.5625 39.9062 43.3281 39.9062 50.9844
C39.9062 60.0312 31.0938 65.2969 23 65.2969
C13.9062 65.2969 5.90625 58.7344 5.90625 49.6875
C5.90625 47.2031 6.5 42.9219 10.4062 39.1406
C11.4062 38.1562 15.5938 35.1719 18.2969 33.2812
C13.7969 30.9844 3.29688 25.5312 3.29688 14.5938
C3.29688 4.35938 13.0938 -2 22.7969 -2
C33.5 -2 42.5 5.65625 42.5 15.7969
C42.5 24.8438 36.4062 29.0312 32.4062 31.7031
z

M14.0938 44.125
C13.2969 44.625 9.29688 47.7031 9.29688 52.375
C9.29688 58.4375 15.5938 63 22.7969 63
C30.7031 63 36.5 57.4531 36.5 50.9844
C36.5 41.7344 26.0938 36.4688 25.5938 36.4688
C25.5 36.4688 25.4062 36.4688 24.5938 37.0781
z

M32.5 23.7344
C34 22.6406 38.7969 19.375 38.7969 13.2969
C38.7969 5.95312 31.4062 0.390625 23 0.390625
C13.9062 0.390625 7 6.84375 7 14.6875
C7 22.5469 13.0938 29.0938 20 32.1875
z
" id="CMR17-56"/>
      </defs>
      <g transform="translate(29.9151681196 21.830650466)scale(0.12 -0.12)">
       <use transform="scale(0.9962640099626402)" xlink:href="#CMR17-56"/>
      </g>
     </g>
    </g>
    <g id="text_9">
     <!-- $\Psi(s)$ -->
     <defs>
      <path d="
M26.2969 24.6719
C26.2969 31.8438 25.5938 43.9844 19.5938 56.8281
C14.7969 67.1875 6.59375 74.4531 5.40625 74.4531
C5.09375 74.4531 4.70312 74.3438 4.70312 73.8594
C4.70312 73.6719 4.79688 73.5625 4.90625 73.3594
C9.70312 68.3906 21.9062 55.75 21.9062 24.7969
C21.9062 -6.28125 9.79688 -18.9219 4.90625 -23.9062
C4.79688 -24.0938 4.70312 -24.2031 4.70312 -24.3906
C4.70312 -24.8906 5.09375 -25 5.40625 -25
C6.5 -25 15 -17.625 19.9062 -6.67188
C24.9062 4.375 26.2969 15.125 26.2969 24.6719" id="CMR17-41"/>
      <path d="
M39 60.9062
C39 64.5 39.2031 65.5 46.7969 65.5
L49 65.5
L49 68
C44.9062 68 40.0938 68 35.9062 68
C31.7031 68 26.7969 68 22.7031 68
L22.7031 65.5
L24.9062 65.5
C32.5 65.5 32.7031 64.5 32.7031 60.9062
L32.7031 14.5938
C18.4062 17.4844 18.2031 35.9062 18.2031 41.1094
C18.0938 50.6094 15.5938 55.5 9.40625 55.5
L6.79688 55.5
C5.20312 55.5 4.70312 55.5 4.70312 54.7031
C4.70312 54.6094 4.70312 54 5.20312 54
C8 53.5 11.7969 52.9062 11.9062 39.5
C12 30.2031 15.2969 14.9062 32.7031 12.9062
L32.7031 7.10938
C32.7031 3.5 32.5 2.5 24.9062 2.5
L22.7031 2.5
L22.7031 0
C26.7969 0 31.7031 0 35.9062 0
C40.0938 0 44.9062 0 49 0
L49 2.5
L46.7969 2.5
C39.2031 2.5 39 3.5 39 7.10938
L39 12.9062
C59.7969 15.1094 60 36.0469 60 41.7344
C60 46.3125 61 52.7969 66.0938 53.7969
C67.0938 54 67.2969 54 67.2969 54.6406
C67.2969 55.5 66.7969 55.5 65.0938 55.5
L62.5 55.5
C55.9062 55.5 53.7969 50.3125 53.7031 40
C53.5938 29.3906 50.7969 17.0938 39 14.5938
z
" id="CMR17-9"/>
      <path d="
M30.5938 -24.4062
C30.5938 -24.3125 30.5938 -24.1094 30.2969 -23.8125
C25.7031 -19.1406 13.4062 -6.39062 13.4062 24.6719
C13.4062 55.75 25.5 68.3906 30.4062 73.3594
C30.4062 73.4688 30.5938 73.6719 30.5938 73.9531
C30.5938 74.25 30.2969 74.4531 29.9062 74.4531
C28.7969 74.4531 20.2969 67.0781 15.4062 56.125
C10.4062 45.0781 9 34.3281 9 24.7812
C9 17.6094 9.70312 5.46875 15.7031 -7.375
C20.5 -17.7344 28.7031 -25 29.9062 -25
C30.4062 -25 30.5938 -24.7969 30.5938 -24.4062" id="CMR17-40"/>
     </defs>
     <g transform="translate(21.9263760897 98.21768859)rotate(-90.0)scale(0.12 -0.12)">
      <use transform="scale(0.9962640099626402)" xlink:href="#CMR17-9"/>
      <use transform="translate(71.71478841551215 0.0)scale(0.9962640099626402)" xlink:href="#CMR17-40"/>
      <use transform="translate(106.99555621497511 0.0)scale(0.9962640099626402)" xlink:href="#CMMI12-115"/>
      <use transform="translate(152.94560376615038 0.0)scale(0.9962640099626402)" xlink:href="#CMR17-41"/>
     </g>
    </g>
   </g>
   <g id="patch_3">
    <path d="
M39.7682 154.181
L308.099 154.181" style="fill:none;stroke:#000000;"/>
   </g>
   <g id="patch_4">
    <path d="
M39.7682 154.181
L39.7682 18.531" style="fill:none;stroke:#000000;"/>
   </g>
   <g id="patch_5">
    <path d="
M308.099 154.181
L308.099 18.531" style="fill:none;stroke:#000000;"/>
   </g>
   <g id="patch_6">
    <path d="
M39.7682 18.531
L308.099 18.531" style="fill:none;stroke:#000000;"/>
   </g>
  </g>
 </g>
 <defs>
  <clipPath id="p43ea8d3ba0">
   <rect height="135.649982882" width="268.330554357" x="39.768158371" y="18.5310427936"/>
  </clipPath>
 </defs>
</svg>
